Patient4_TMGait_0pt7_02_left_47_EMG.mot
version=1
nRows=36
nColumns=33
inDegrees=no
endheader
time	1LAddLong	2LGlutMax	3LGlutMed	4LIliopsoas	5LSemiMemb	6LBicFemLong	7LRecFem	8LVastMed	9LVastLat	10LGasMed	11LTibAnt	12lTibPost	13LPeroneusLong	14LSol	15LExtDigLong	16LFlexDigLong	17RAddLong	18RGlutMax	19RGlutMed	20RIliopsoas	21RSemiMemb	22RBicFemLong	23RRecFem	24RVastMed	25RVastLat	26RGasMed	27RTibAnt	28RTibPost	29RPeroneusLong	30RSol	31RExtDigLong	32RFlexDigLong
54.958	0.019379	0.02594	0.055389	0.00473	-0.002899	0.019379	0.050659	0.013885	0.056915	-0.01297	0.005035	-0.003204	0.026398	-0.051575	0.002594	-0.003815	-0.0177	-0.029144	0.084686	-0.075226	-0.1889	0.17639	-0.088501	-0.51941	0.20767	-0.009308	-0.030518	0.020752	-0.3186	-0.4689	-0.000153	-0.017395
54.959	0.009003	0.05127	0.035706	0.008087	0.014496	0.007477	0.068207	0.021515	0.040131	-0.006714	-0.00412	-0.002594	0.014954	-0.032196	0.006409	-0.005035	-0.063782	-0.048828	-0.002747	-0.012054	-0.11215	0.24872	-0.81055	-0.11261	0.37018	-0.011597	0.019379	-0.003967	0.007935	-1.2756	-0.001678	-0.009308
54.96	0.008545	0.049591	0.055542	0.001831	0.000305	-0.01236	0.077209	0.019684	0.032959	-0.022125	0.005798	-0.000458	0.011139	-0.066528	0.019836	-0.00061	-0.066833	0.006104	-0.29388	0.033264	-0.076141	0.20462	-0.97977	0.26794	0.26413	-0.002899	0.013428	0.003204	0.09964	-1.3414	-0.001831	-0.013428
54.961	0.012207	0.05722	0.036926	0.009766	0.006256	-0.031281	0.067444	0.019379	0.026245	-0.014496	0.031891	0.010071	-0.022125	-0.070801	0.019226	0.006409	-0.042725	-0.035095	-0.052948	0.069885	0.11871	0.04837	-0.81375	0.24933	0.38483	0.011292	0.002594	-0.022736	0.60089	-0.97855	-0.000763	-0.01709
54.962	0.005798	0.078125	0.015411	0.019531	0.009308	0.023651	0.068359	0.015717	0.025177	-0.022125	0.038605	-0.001678	-0.017548	-0.061493	0.016022	-0.007629	-0.007782	-0.014191	0.37628	-0.007172	0.070343	-0.063782	-0.27481	0.30838	0.34073	-0.003815	0.019226	-0.087585	0.48401	0.16541	-0.002289	-0.018005
54.963	0.017395	0.075989	0.011139	-0.006714	-0.041351	0.021362	0.049591	0.008392	0.030518	-0.018005	0.037384	-0.006866	-0.026093	-0.10086	0.024261	-0.001678	0.006256	-0.030823	0.61279	-0.002747	0.09079	-0.098724	0.007324	0.40619	0.19257	-0.026855	0.048981	-0.10452	0.20218	0.56747	-0.002899	-0.015106
54.964	0.009155	0.056	-0.029755	0.012817	-0.098724	-0.015564	0.056152	0.021362	0.032043	-0.006409	0.045929	-0.012665	-0.002441	-0.049744	0.029144	-0.009766	0.036163	-0.023651	1.1064	0.010223	0.17548	-0.083466	0.22629	0.46661	-0.22354	-0.031891	0.042114	-0.030518	-0.028992	0.61371	-0.002899	-0.014954
54.965	0.00412	0.074005	-0.050812	0.023956	-0.013428	-0.035706	0.067749	0.016632	0.030975	-0.016022	0.0383	-0.004272	-0.0383	-0.006714	0.016174	-0.010376	0.036316	-0.081482	0.89874	0.019836	0.077667	-0.10239	0.2153	0.30792	-0.58701	-0.002747	0.12116	0.11719	-0.11124	0.35568	-0.008545	-0.018463
54.966	0.02121	0.071564	-0.093994	0.002441	0.029907	-0.039063	0.037842	0.020447	0.031128	-0.029144	-0.00824	-0.015106	-0.030975	-0.018463	-0.000458	0.002289	-0.007782	-0.1445	-0.12863	-0.077362	-0.20844	-0.045013	0.003204	0.20203	-0.55237	-0.005493	0.19852	-0.07431	-0.14435	0.35431	-0.003052	-0.024261
54.967	0.01709	0.075989	-0.058899	0.005798	0.027771	-0.046387	0.028076	0.014038	0.019073	-0.030823	-0.077209	-0.015259	-0.015869	-0.011444	-0.010834	-0.003357	-0.017548	-0.16266	-0.49759	-0.21591	-0.086517	-0.070648	-0.1619	0.10117	-0.22675	-0.002441	-0.01709	-0.041656	-0.19592	0.26718	-0.002289	-0.013275
54.968	0.014191	0.081787	-0.070648	0.02533	0.077515	-0.033264	0.009613	0.026093	0.022888	-0.036774	-0.16144	-0.011139	-0.030518	-0.017395	-0.000153	0.009155	0.028687	-0.15671	-0.2121	-0.24048	0.019836	-0.028076	-0.14221	0.14877	-0.1593	0.00351	-0.085754	0.18173	0.04837	-0.15305	-0.00824	-0.010834
54.969	0.015259	0.097046	-0.0383	-0.002441	0.051422	-0.022888	0.005035	0.019379	0.018616	-0.012665	-0.14816	-0.010986	-0.03006	-0.024719	0.013275	-0.00946	0.03418	-0.14465	-0.13763	-0.13046	0.022278	0.063171	0.048828	0.092926	-0.1091	0.014038	-0.17181	0.061493	0.17929	-0.65247	0.00412	-0.009003
54.97	0.007629	0.10803	-0.036163	0.00885	0.019836	-0.011444	-0.006561	0.016785	0.00351	-0.015717	-0.065002	-0.01297	-0.045013	-0.037537	0.036926	-0.014343	-0.000916	-0.12695	-0.27832	0.10956	0.09964	0.049438	0.020294	0.005798	-0.019531	0.032349	0.006714	0.034637	0.5481	-0.88425	-0.002136	-0.001678
54.971	0.016632	0.12146	-0.015106	0.003204	0.025177	-0.003815	-0.016937	0.013428	-0.001831	-0.021057	0.015869	-0.008087	-0.023956	-0.070038	0.040894	-0.01709	-0.028534	-0.062714	0.46066	0.31021	0.22949	-0.015411	-0.031433	0.006866	0.024261	0.007324	0.24277	0.013123	0.42526	-0.69565	-0.002136	-0.016632
54.972	0.006104	0.10819	0.028687	0.005341	0.022888	0.001831	-0.025482	0.011444	-0.002747	-0.015106	0.15106	-0.011444	-0.017395	-0.097198	0.019836	0.014038	-0.059509	-0.14252	0.66864	0.23025	0.016174	0.077057	-0.019836	0.066528	-0.003204	-0.021667	0.19226	0.011292	-0.042114	-0.47012	-0.003967	-0.029449
54.973	0.009918	0.12344	0.031891	-0.002289	0.029755	-0.00412	-0.023651	0.02243	-0.023804	-0.032959	0.14923	-0.015259	-0.007629	-0.082703	0.010986	-0.014954	-0.04776	-0.19882	1.0445	0.063171	-0.18555	0.10803	0.057678	0.10956	0.022583	-0.010834	0.13901	0.035706	-0.32867	-0.35843	-0.004883	-0.021973
54.974	0.019379	0.15533	0.019073	0.012054	0.025177	-0.015259	-0.032806	0.016174	-0.030365	-0.020599	0.08316	-0.008087	-0.007782	-0.048523	0.027161	0.013428	-0.041504	-0.11978	0.60074	0.048676	-0.004578	0.051575	0.083008	0.064697	-0.051117	-0.009766	-0.066833	0.032654	-0.20706	-0.030212	-0.004883	-0.017853
54.975	0.019226	0.12405	-0.022888	0.007782	-0.010529	-0.031586	-0.025482	0.019226	-0.037689	-0.027466	0.060425	-0.002747	-0.02243	-0.054474	0.013275	-0.000458	-0.016479	-0.059967	-0.091705	-0.004272	0.10773	-0.025635	-0.041656	0.063477	-0.083466	-0.003357	-0.10819	-0.48584	-0.41779	0.082092	-0.001831	-0.02121
54.976	0.01709	0.14053	-0.018768	0.00946	-0.007782	-0.02243	-0.020294	0.016174	-0.046844	-0.028076	0.084076	-0.011444	-0.044708	-0.046082	0.018616	-0.012817	-0.016022	-0.022125	-0.32257	0.041809	0.035706	-0.080109	-0.10941	0.043945	-0.074463	0.006714	-0.053711	-0.31982	-0.31891	0.4776	-0.001984	-0.027466
54.977	0.009766	0.16525	-0.072327	-0.005951	0.001068	0.018463	-0.0383	0.017242	-0.056152	-0.03006	0.06485	-0.012054	-0.037842	-0.039978	0.13138	0.015564	-0.017242	-0.082703	-0.21316	0.015259	-0.018311	-0.070648	-0.18463	-0.02182	-0.027924	-0.004883	-0.037231	0.22614	-0.13641	1.1256	0.001373	-0.023193
54.978	0.009155	0.11749	-0.11215	0.003815	0.005188	0.044861	-0.030365	0.018005	-0.059204	-0.042572	-0.029907	-0.00946	-0.003357	-0.040283	0.021362	0.015717	-0.027466	-0.11398	-0.11871	-0.073547	-0.1471	-0.037537	-0.085754	-0.053253	0	-0.024414	0.009766	0.27451	0.13001	0.96466	-0.000458	-0.018616
54.979	0.022125	0.11871	-0.10147	0.021362	0.011444	0.05188	-0.033569	0.010834	-0.053101	-0.041199	-0.038452	-0.006256	0.005951	-0.053558	-0.047607	0.001526	-0.00946	-0.06485	-0.1564	-0.2478	-0.087433	0.041656	-0.014343	-0.032043	-0.007172	-0.040283	0.02594	0.10117	0.26932	0.41122	0.001221	-0.025482
54.98	0.015106	0.12222	0.009918	0.004425	-0.025635	0.010681	-0.029755	0.016327	-0.059662	-0.057831	-0.020142	0.011749	-0.011444	-0.059052	-0.057526	0.014038	0.003357	-0.088043	-0.17777	-0.37689	-0.052032	0.0177	-0.036926	-0.062256	0.009308	-0.041504	0.033264	0.026398	0.40939	0.59296	-0.000458	-0.018768
54.981	0.016327	0.11063	0.077209	0.012512	-0.015564	-0.055847	-0.034943	0.010223	-0.054321	-0.041809	-0.000916	0.012512	-0.031891	-0.065002	-0.055847	0.000305	0.010834	-0.11154	-0.12787	-0.4071	-0.039673	0.031738	-0.015717	-0.052948	0.006714	-0.038147	0.076752	0.11108	0.30273	0.32318	0	-0.01358
54.982	0.010986	0.11139	0.098724	0.00473	0.012512	-0.043793	-0.018616	0.018463	-0.062103	-0.031128	0.000153	0.001526	-0.028076	-0.071716	-0.028992	0.022736	-0.003815	-0.11597	-0.10422	-0.18845	-0.003052	-0.007477	0.039673	-0.035248	0.013733	-0.032959	0.31342	0.051727	0.052643	0.42358	-0.002136	-0.005493
54.983	0.003357	0.11398	0.058594	0.02594	0.002136	0.001526	-0.041046	0.018616	-0.056763	-0.032349	-0.005035	-0.005798	-0.00946	-0.051117	-0.008392	0.008698	-0.007935	-0.12146	-0.14465	0.22675	0.028381	0.001373	0.032349	-0.036774	0.050964	-0.019379	0.46799	-0.1857	-0.039978	0.91354	-0.003052	-0.007629
54.984	0.003052	0.11215	0.026093	0.011139	-0.056458	-0.019836	-0.021667	0.021362	-0.046539	-0.022278	-0.015106	-0.003815	-0.005798	-0.03479	0.009613	-0.00946	-0.008545	-0.17471	-0.20432	0.61523	0.028381	-0.024567	0.028229	-0.05722	-0.010986	0.008392	0.76889	-0.084686	-0.13382	0.42908	-0.000305	-0.00412
54.985	0.000305	0.096741	-0.027313	0.018921	-0.047302	-0.006256	-0.016632	0.016479	-0.041046	-0.00946	0.000763	-0.026245	-0.02182	-0.073547	0.033264	0.007019	0.001373	-0.16068	-0.4071	0.70282	0.003967	-0.022278	0.060425	-0.14038	-0.049133	0.018005	0.28198	0.1445	-0.25833	-0.26459	-0.002747	-0.01236
54.986	-0.008392	0.10666	-0.093994	0.004272	-0.058136	-0.04715	-0.051117	0.019684	-0.036926	-0.003967	0.027618	-0.04425	-0.043182	-0.048676	-0.001984	-0.007019	0.009613	-0.12634	-0.31891	0.43884	0.001984	0.013733	0.046539	0.021973	-0.050812	0.00946	-0.035095	0.091248	-0.12543	-0.54291	0	-0.00885
54.987	0.020294	0.072784	-0.024872	0.000763	0.007629	-0.14404	-0.078583	0.019836	-0.025482	-0.003967	0.042725	-0.02533	-0.06958	-0.065613	-0.055542	0.007935	0.016937	-0.13504	-0.17868	0.26291	-0.12131	0.030212	0.1944	-0.00946	-0.055847	-0.022583	-0.80109	-0.13473	-0.036774	-0.43991	-0.000305	-0.015106
54.988	0.024109	0.093079	-0.010986	0.012817	0.09491	-0.15762	-0.055084	0.015717	-0.015869	-0.023499	0.065613	-0.020752	-0.070496	-0.075073	-0.027771	0.019073	0.04425	-0.15396	-0.24139	0.096283	-0.2269	0.011902	0.30945	-0.084534	-0.093689	-0.025482	-0.53528	0.023956	0.024414	-0.33188	-0.002441	-0.007477
54.989	0.037079	0.069885	0.005035	-0.007324	0.069885	-0.11047	-0.036774	0.007935	-0.007629	-0.037842	0.067444	-0.012817	-0.049896	-0.077972	0.021057	0.000763	0.038757	-0.12772	-0.18509	-0.025024	-0.13199	-0.035706	0.23071	-0.036011	-0.14404	-0.013733	0.46143	0.099182	-0.068665	-0.49408	-0.002136	-0.010376
54.99	0.011139	0.028229	0.042572	-0.002747	0.003357	-0.066223	-0.060272	0.015411	-0.002136	-0.035095	0.020905	-0.013733	-0.039978	-0.10864	0.041809	-0.000916	0.018921	-0.12909	-0.081024	-0.087738	0.15198	-0.032196	-0.009613	-0.055542	-0.080414	-0.001678	0.36835	0.01358	-0.14374	-0.41061	-0.00473	-0.018005
54.991	0.00473	0.041046	-0.004272	-0.011139	0.020905	-0.030823	-0.046387	0.004272	0.009308	-0.05127	-0.094452	-0.003052	-0.001678	-0.050507	0.004272	0.008392	-0.022888	-0.19134	-0.18509	-0.14496	-0.033264	0.015259	-0.17792	-0.037842	0.034485	0.007324	-0.50034	0.002441	0.003662	-0.37842	-0.001831	-0.012512
54.992	0.01236	0.059662	0.023346	0.013733	0.055237	0.028229	-0.055389	0.013275	0.017853	-0.035248	-0.040436	-0.001526	-0.046997	-0.046082	-0.011139	-0.003662	-0.010376	-0.14908	-0.20233	-0.13672	0.040741	0.003662	-0.20844	-0.035248	0.063477	0.01709	-1.4319	0.002747	0.11993	-0.40268	-0.000916	-0.008698
54.993	0.007935	0.11322	0.018768	0.020142	0.048828	0.051727	-0.061798	0.007019	0.025787	-0.044861	-0.003204	0	-0.032654	-0.058594	-0.040741	-0.000916	-0.014648	-0.098877	-0.32288	-0.11398	0.10391	0.026245	-0.3595	-0.064392	-0.046692	0.015717	-0.87952	-0.020294	0.17609	-0.31662	0	-0.013428
